<mxfile host="app.diagrams.net" modified="2024-02-13T11:04:09.003Z" agent="Mozilla/5.0 (Windows NT 10.0; Win64; x64) AppleWebKit/537.36 (KHTML, like Gecko) Chrome/121.0.0.0 Safari/537.36 Edg/121.0.0.0" etag="3pSEmWXSB2HK6UzZEGVq" version="23.1.2" type="device">
  <diagram name="Página-1" id="icYfDgDY7uHGjHZ1U48I">
    <mxGraphModel dx="1426" dy="769" grid="1" gridSize="10" guides="1" tooltips="1" connect="1" arrows="1" fold="1" page="1" pageScale="1" pageWidth="827" pageHeight="1169" math="0" shadow="0">
      <root>
        <mxCell id="0" />
        <mxCell id="1" parent="0" />
        <mxCell id="R05OtiCrDzwynE_MtqFZ-17" style="edgeStyle=orthogonalEdgeStyle;rounded=0;orthogonalLoop=1;jettySize=auto;html=1;" edge="1" parent="1" source="R05OtiCrDzwynE_MtqFZ-1" target="R05OtiCrDzwynE_MtqFZ-3">
          <mxGeometry relative="1" as="geometry" />
        </mxCell>
        <mxCell id="R05OtiCrDzwynE_MtqFZ-1" value="" style="rounded=1;whiteSpace=wrap;html=1;" vertex="1" parent="1">
          <mxGeometry x="40" y="300" width="120" height="60" as="geometry" />
        </mxCell>
        <mxCell id="R05OtiCrDzwynE_MtqFZ-2" value="Cámara" style="text;html=1;strokeColor=none;fillColor=none;align=center;verticalAlign=middle;whiteSpace=wrap;rounded=0;" vertex="1" parent="1">
          <mxGeometry x="70" y="315" width="60" height="30" as="geometry" />
        </mxCell>
        <mxCell id="R05OtiCrDzwynE_MtqFZ-14" style="edgeStyle=orthogonalEdgeStyle;rounded=0;orthogonalLoop=1;jettySize=auto;html=1;entryX=0.5;entryY=0;entryDx=0;entryDy=0;" edge="1" parent="1" source="R05OtiCrDzwynE_MtqFZ-3" target="R05OtiCrDzwynE_MtqFZ-5">
          <mxGeometry relative="1" as="geometry" />
        </mxCell>
        <mxCell id="R05OtiCrDzwynE_MtqFZ-3" value="" style="rounded=1;whiteSpace=wrap;html=1;" vertex="1" parent="1">
          <mxGeometry x="240" y="300" width="120" height="60" as="geometry" />
        </mxCell>
        <mxCell id="R05OtiCrDzwynE_MtqFZ-4" value="Ordenador" style="text;html=1;strokeColor=none;fillColor=none;align=center;verticalAlign=middle;whiteSpace=wrap;rounded=0;" vertex="1" parent="1">
          <mxGeometry x="270" y="315" width="60" height="30" as="geometry" />
        </mxCell>
        <mxCell id="R05OtiCrDzwynE_MtqFZ-15" style="edgeStyle=orthogonalEdgeStyle;rounded=0;orthogonalLoop=1;jettySize=auto;html=1;entryX=0.5;entryY=0;entryDx=0;entryDy=0;" edge="1" parent="1" source="R05OtiCrDzwynE_MtqFZ-5" target="R05OtiCrDzwynE_MtqFZ-7">
          <mxGeometry relative="1" as="geometry" />
        </mxCell>
        <mxCell id="R05OtiCrDzwynE_MtqFZ-5" value="" style="rounded=1;whiteSpace=wrap;html=1;" vertex="1" parent="1">
          <mxGeometry x="240" y="450" width="120" height="60" as="geometry" />
        </mxCell>
        <mxCell id="R05OtiCrDzwynE_MtqFZ-6" value="GPIO" style="text;html=1;strokeColor=none;fillColor=none;align=center;verticalAlign=middle;whiteSpace=wrap;rounded=0;" vertex="1" parent="1">
          <mxGeometry x="270" y="465" width="60" height="30" as="geometry" />
        </mxCell>
        <mxCell id="R05OtiCrDzwynE_MtqFZ-16" style="edgeStyle=orthogonalEdgeStyle;rounded=0;orthogonalLoop=1;jettySize=auto;html=1;entryX=0.5;entryY=0;entryDx=0;entryDy=0;" edge="1" parent="1" source="R05OtiCrDzwynE_MtqFZ-7" target="R05OtiCrDzwynE_MtqFZ-9">
          <mxGeometry relative="1" as="geometry" />
        </mxCell>
        <mxCell id="R05OtiCrDzwynE_MtqFZ-7" value="" style="rounded=1;whiteSpace=wrap;html=1;" vertex="1" parent="1">
          <mxGeometry x="240" y="585" width="120" height="60" as="geometry" />
        </mxCell>
        <mxCell id="R05OtiCrDzwynE_MtqFZ-8" value="Mando" style="text;html=1;strokeColor=none;fillColor=none;align=center;verticalAlign=middle;whiteSpace=wrap;rounded=0;" vertex="1" parent="1">
          <mxGeometry x="270" y="600" width="60" height="30" as="geometry" />
        </mxCell>
        <mxCell id="R05OtiCrDzwynE_MtqFZ-9" value="" style="rounded=1;whiteSpace=wrap;html=1;" vertex="1" parent="1">
          <mxGeometry x="240" y="740" width="120" height="60" as="geometry" />
        </mxCell>
        <mxCell id="R05OtiCrDzwynE_MtqFZ-10" value="Robot" style="text;html=1;strokeColor=none;fillColor=none;align=center;verticalAlign=middle;whiteSpace=wrap;rounded=0;" vertex="1" parent="1">
          <mxGeometry x="270" y="755" width="60" height="30" as="geometry" />
        </mxCell>
      </root>
    </mxGraphModel>
  </diagram>
</mxfile>
